<svg width="18" height="18" viewBox="0 0 18 18" fill="none" xmlns="http://www.w3.org/2000/svg">
<g clip-path="url(#clip0_1008_5279)">
<path d="M17.9961 3.73137C17.3267 4.025 16.6135 4.21962 15.8698 4.31412C16.6348 3.85737 17.2187 3.13962 17.4932 2.2745C16.78 2.69975 15.9925 3.00013 15.1532 3.16775C14.476 2.44663 13.5107 2 12.4577 2C10.4147 2 8.76997 3.65825 8.76997 5.69113C8.76997 5.98363 8.79472 6.26487 8.85547 6.53262C5.78759 6.383 3.07297 4.91263 1.24934 2.67275C0.930969 3.22513 0.744219 3.85738 0.744219 4.538C0.744219 5.816 1.40234 6.94887 2.38334 7.60475C1.79047 7.5935 1.20884 7.42138 0.716094 7.15025C0.716094 7.1615 0.716094 7.17613 0.716094 7.19075C0.716094 8.984 1.99522 10.4735 3.67259 10.8166C3.37222 10.8988 3.04484 10.9381 2.70509 10.9381C2.46884 10.9381 2.23034 10.9246 2.00647 10.8751C2.48459 12.3365 3.84134 13.4109 5.45459 13.4457C4.19909 14.4279 2.60497 15.0196 0.879219 15.0196C0.576594 15.0196 0.286344 15.0061 -0.00390625 14.969C1.63072 16.0231 3.56797 16.625 5.65709 16.625C12.4476 16.625 16.1601 11 16.1601 6.12425C16.1601 5.96112 16.1545 5.80363 16.1466 5.64725C16.879 5.1275 17.4943 4.47837 17.9961 3.73137Z" fill="white"/>
</g>
<defs>
<clipPath id="clip0_1008_5279">
<rect width="18" height="18" fill="white" transform="translate(-0.00390625)"/>
</clipPath>
</defs>
</svg>
