<svg width="18" height="18" viewBox="0 0 18 18" fill="none" xmlns="http://www.w3.org/2000/svg">
<path fill-rule="evenodd" clip-rule="evenodd" d="M16.0388 3.38548C16.8098 3.59312 17.4177 4.20094 17.6252 4.97204C18.0109 6.38048 17.996 9.31629 17.996 9.31629C17.996 9.31629 17.996 12.2371 17.6254 13.6457C17.4177 14.4167 16.8099 15.0246 16.0388 15.2321C14.6302 15.6029 8.99606 15.6029 8.99606 15.6029C8.99606 15.6029 3.37657 15.6029 1.9533 15.2174C1.1822 15.0098 0.574384 14.4018 0.366743 13.6309C-0.00390625 12.2371 -0.00390625 9.30146 -0.00390625 9.30146C-0.00390625 9.30146 -0.00390625 6.38048 0.366743 4.97204C0.574247 4.20108 1.19703 3.57829 1.95316 3.37079C3.36174 3 8.99592 3 8.99592 3C8.99592 3 14.6302 3 16.0388 3.38548ZM11.8884 9.30203L7.20312 12.0005V6.60352L11.8884 9.30203Z" fill="white"/>
</svg>
