<svg width="32" height="32" viewBox="0 0 32 32" fill="none" xmlns="http://www.w3.org/2000/svg">
<g clip-path="url(#clip0_1008_5324)">
<path d="M21.9973 0C20.2914 0.117999 18.2974 1.20999 17.1354 2.63198C16.0754 3.92198 15.2034 5.83797 15.5434 7.69995C17.4074 7.75795 19.3334 6.63996 20.4494 5.19397C21.4933 3.84798 22.2833 1.94399 21.9973 0Z" fill="white"/>
<path d="M28.7411 10.7362C27.1031 8.68223 24.8011 7.49023 22.6271 7.49023C19.7571 7.49023 18.5431 8.86423 16.5492 8.86423C14.4932 8.86423 12.9312 7.49423 10.4492 7.49423C8.0112 7.49423 5.41522 8.98423 3.76923 11.5322C1.45524 15.1202 1.85124 21.8662 5.60122 27.6121C6.94321 29.6681 8.7352 31.9801 11.0792 32.0001C13.1652 32.0201 13.7532 30.6621 16.5792 30.6481C19.4051 30.6321 19.9411 32.0181 22.0231 31.9961C24.3691 31.9781 26.2591 29.4161 27.6011 27.3601C28.5631 25.8861 28.9211 25.1441 29.6671 23.4801C24.2411 21.4142 23.3711 13.6982 28.7411 10.7362Z" fill="white"/>
</g>
<defs>
<clipPath id="clip0_1008_5324">
<rect width="32" height="32" fill="white"/>
</clipPath>
</defs>
</svg>
