<svg width="18" height="18" viewBox="0 0 18 18" fill="none" xmlns="http://www.w3.org/2000/svg">
<path d="M17.9921 17.9992V17.9984H17.9966V11.3969C17.9966 8.16744 17.3013 5.67969 13.5258 5.67969C11.7108 5.67969 10.4928 6.67569 9.99554 7.61994H9.94304V5.98119H6.36328V17.9984H10.0908V12.0479C10.0908 10.4812 10.3878 8.96619 12.328 8.96619C14.2398 8.96619 14.2683 10.7542 14.2683 12.1484V17.9992H17.9921Z" fill="white"/>
<path d="M0.292969 5.98242H4.02497V17.9997H0.292969V5.98242Z" fill="white"/>
<path d="M2.15759 0C0.964344 0 -0.00390625 0.96825 -0.00390625 2.1615C-0.00390625 3.35475 0.964344 4.34325 2.15759 4.34325C3.35084 4.34325 4.31909 3.35475 4.31909 2.1615C4.31834 0.96825 3.35009 0 2.15759 0V0Z" fill="white"/>
</svg>
